# xmcd CD database file
#
# Track frame offsets:
#	150
#	16450
#	37357
#	57050
#	78690
#	99135
#	129300
#	143297
#	164595
#	188872
#
# Disc length: 2830 seconds
#
# Revision: 0
# Processed by: cddbd v1.5.2PL0 Copyright (c) Steve Scherf et al.
# Submitted via: CDex 1.70beta2
#
DISCID=7e0b0c0a
DTITLE=Andre Previn And His Trio - Give My Regards To Broadway
DYEAR=1900
DGENRE=Jazz
TTITLE0=Give My Regards To Broadway (From Little Johnny Jones)
TTITLE1=Take Me Along (From Take Me Along)
TTITLE2=Almost Like Being In Love (From Brigadoon)
TTITLE3=The Sound Of Music (From The Sound Of Music)
TTITLE4=Put On A Happy Face (From Bye Bye Birdie)
TTITLE5=Too Close For Comfort (From Mr. Wonderful)
TTITLE6=When I'm Not Near The Girl I Love (From Finian's Rainbow)
TTITLE7=Everything's Coming Up Roses (From Gypsy)
TTITLE8=Diamonds Are A Girl's Best Friend (From Gentleman Prefer Blandies)
TTITLE9=Too Darn Hot (From Kiss Me, Kate)
EXTD=
EXTT0=
EXTT1=
EXTT2=
EXTT3=
EXTT4=
EXTT5=
EXTT6=
EXTT7=
EXTT8=
EXTT9=
PLAYORDER=
